<svg width="147" height="30" viewBox="0 0 147 30" fill="none" xmlns="http://www.w3.org/2000/svg">
<g id="sneakers 2">
<g id="sneakers" filter="url(#filter0_d_0_810)">
<path fill-rule="evenodd" clip-rule="evenodd" d="M87.2973 11.9554L93.8261 21H88.5998L84.2425 14.9633L81.2223 17.9386V20.9543H77.0351V1H81.2223V12.2226L88.0577 5.46748H93.8847L87.2973 11.9554ZM56.6033 15.5951C56.1726 18.9292 53.48 21 48.3858 21C43.0697 21 40.0497 18.3232 40.0497 13.1544C40.0497 8.0812 43.1465 5.30913 48.3858 5.30913C50.5806 5.30913 52.3254 5.85922 53.637 6.77393V6.76839C56.6343 8.79242 56.903 12.0789 56.6627 14.2081H56.5082L56.5082 14.2092H44.1364C44.4244 16.2853 45.6647 17.3143 48.3858 17.3143C50.8985 17.3143 52.1427 16.615 52.5294 15.5951H56.6033ZM13.2168 21C17.9782 21 20.7358 20.2467 20.7358 16.3935C20.7358 12.9945 17.3557 12.2222 14.076 11.7123L13.5154 11.6271L13.237 11.5855L12.8879 11.5332C10.1867 11.1276 9.70681 10.745 9.70681 10.062C9.70681 9.5842 10.1977 8.73096 12.5495 8.73096C15.0047 8.73096 16.043 9.37823 16.043 10.6013V10.7351H20.3245V10.6022C20.3245 8.21298 18.9744 5.36394 12.5495 5.36394C6.59817 5.36394 5.34873 7.94831 5.34873 10.116C5.34873 13.2131 8.11186 14.2017 12.5725 14.7914C12.7826 14.8188 13.0048 14.8454 13.2307 14.872C14.8997 15.0688 16.4032 15.2911 16.4032 16.4575C16.4032 17.4672 14.788 17.6787 13.1052 17.6787C10.3083 17.6787 9.32121 17.0865 9.32121 15.759V15.6253H5.0021L5.00044 15.9265L5 16.2433C5.00845 17.0334 5.11799 18.1559 6.05693 19.105C7.30277 20.3619 9.71152 21 13.2168 21ZM26.4271 21V13.5096C26.4271 11.4061 26.9736 9.08726 30.6033 9.08726C34.4137 9.08726 34.3856 11.7183 34.3716 13.0247L34.3706 13.1287L34.3701 21H38.551V13.2322C38.5501 10.9684 38.3754 5.46555 31.819 5.46555C29.0412 5.46555 27.627 6.37748 26.6244 7.74594H26.4271V5.46748H22.2205V21H26.4271ZM52.4846 11.4261H44.2972C44.7826 9.85164 46.0605 8.99479 48.3858 8.99479C51.3803 8.99479 52.1407 10.2625 52.4846 11.4261ZM75.499 5.45724V21H71.2905V18.8312H71.1589C70.1088 20.1825 68.3391 21 65.4251 21C58.9161 21 58.1831 15.3213 58.1831 13.2286L58.1839 13.0917C58.2125 10.7499 59.0044 5.45724 65.4369 5.45724C68.3054 5.45724 70.0612 6.36281 71.1141 7.73957L71.2905 7.73957V5.45724H75.499ZM66.6455 17.3766C62.6492 17.3766 62.1984 14.3454 62.1984 13.2286C62.1984 12.0194 62.6235 9.08062 66.6527 9.08062C70.2843 9.08062 71.0273 11.1249 71.0273 13.2286C71.0273 15.5796 70.2851 17.3766 66.6455 17.3766ZM103.726 21C108.82 21 111.512 18.9292 111.943 15.5951H107.869C107.482 16.615 106.238 17.3143 103.726 17.3143C101.005 17.3143 99.7642 16.2853 99.4762 14.2092H111.848V14.2081H112.003C112.243 12.0789 111.974 8.79242 108.977 6.76839V6.77393C107.665 5.85922 105.92 5.30913 103.726 5.30913C98.4863 5.30913 95.3896 8.0812 95.3896 13.1544C95.3896 18.3232 98.4095 21 103.726 21ZM99.6371 11.4261H107.824C107.481 10.2625 106.72 8.99479 103.726 8.99479C101.4 8.99479 100.122 9.85164 99.6371 11.4261ZM117.76 21V14.0306C117.76 11.9269 118.691 9.48814 121.81 9.48814C123.14 9.48814 124.203 9.72429 124.595 9.8342L125.265 5.85839C125.188 5.84144 125.109 5.82367 125.028 5.80546L125.028 5.80542C124.345 5.65147 123.519 5.46555 122.508 5.46555C119.843 5.46555 118.886 6.2601 118.022 7.74788H117.76V5.46555H113.551V21H117.76ZM142.5 16.3935C142.5 20.2467 139.742 21 134.981 21C131.476 21 129.067 20.3619 127.821 19.105C126.882 18.1559 126.773 17.0334 126.764 16.2433L126.765 15.9265L126.766 15.6253H131.085V15.759C131.085 17.0865 132.073 17.6787 134.869 17.6787C136.552 17.6787 138.167 17.4672 138.167 16.4575C138.167 15.2911 136.664 15.0688 134.995 14.872C134.769 14.8454 134.547 14.8188 134.337 14.7914C129.876 14.2017 127.113 13.2131 127.113 10.116C127.113 7.94831 128.362 5.36394 134.314 5.36394C140.739 5.36394 142.089 8.21298 142.089 10.6022V10.7351H137.807V10.6013C137.807 9.37823 136.769 8.73096 134.314 8.73096C131.962 8.73096 131.471 9.5842 131.471 10.062C131.471 10.745 131.951 11.1276 134.652 11.5332L135.001 11.5855L135.28 11.6271L135.84 11.7123C139.12 12.2222 142.5 12.9945 142.5 16.3935Z" fill="#1D2026"/>
<path d="M93.8261 21V21.5H94.8037L94.2315 20.7074L93.8261 21ZM87.2973 11.9554L86.9464 11.5992L86.6408 11.9002L86.8919 12.248L87.2973 11.9554ZM88.5998 21L88.1944 21.2926L88.344 21.5H88.5998V21ZM84.2425 14.9633L84.648 14.6707L84.3068 14.1981L83.8916 14.6072L84.2425 14.9633ZM81.2223 17.9386L80.8714 17.5824L80.7223 17.7293V17.9386H81.2223ZM81.2223 20.9543V21.4543H81.7223V20.9543H81.2223ZM77.0351 20.9543H76.5351V21.4543H77.0351V20.9543ZM77.0351 1V0.5H76.5351V1H77.0351ZM81.2223 1H81.7223V0.5H81.2223V1ZM81.2223 12.2226H80.7223V13.4196L81.5738 12.5782L81.2223 12.2226ZM88.0577 5.46748V4.96748H87.8523L87.7063 5.11185L88.0577 5.46748ZM93.8847 5.46748L94.2356 5.82372L95.1049 4.96748H93.8847V5.46748ZM56.6033 15.5951L57.0992 15.6592L57.172 15.0951H56.6033V15.5951ZM53.637 6.77393L53.351 7.18405L54.137 7.73219V6.77393H53.637ZM53.637 6.76839L53.9168 6.35402L53.137 5.82741V6.76839H53.637ZM56.6627 14.2081V14.7081H57.1095L57.1596 14.2642L56.6627 14.2081ZM56.5082 14.2081V13.7081H56.0065L56.0082 14.2098L56.5082 14.2081ZM56.5082 14.2092V14.7092H57.0099L57.0082 14.2075L56.5082 14.2092ZM44.1364 14.2092V13.7092H43.5622L43.6411 14.2779L44.1364 14.2092ZM52.5294 15.5951V15.0951H52.1842L52.0619 15.4178L52.5294 15.5951ZM14.076 11.7123L14.1528 11.2183L14.1512 11.218L14.076 11.7123ZM13.5154 11.6271L13.5905 11.1327L13.5891 11.1325L13.5154 11.6271ZM13.237 11.5855L13.1629 12.08L13.1632 12.0801L13.237 11.5855ZM12.8879 11.5332L12.8136 12.0277L12.8138 12.0277L12.8879 11.5332ZM16.043 10.7351H15.543V11.2351H16.043V10.7351ZM20.3245 10.7351V11.2351H20.8245V10.7351H20.3245ZM12.5725 14.7914L12.507 15.2871L12.5078 15.2872L12.5725 14.7914ZM13.2307 14.872L13.2892 14.3754L13.2891 14.3754L13.2307 14.872ZM9.32121 15.6253H9.82121V15.1253H9.32121V15.6253ZM5.0021 15.6253V15.1253H4.50485L4.50211 15.6225L5.0021 15.6253ZM5.00044 15.9265L4.50045 15.9237L4.50044 15.9258L5.00044 15.9265ZM5 16.2433L4.49996 16.2426L4.50003 16.2486L5 16.2433ZM6.05693 19.105L5.70148 19.4566L5.70182 19.457L6.05693 19.105ZM26.4271 21V21.5H26.9271V21H26.4271ZM34.3716 13.0247L33.8716 13.0194L33.8716 13.0197L34.3716 13.0247ZM34.3706 13.1287L33.8706 13.1237L33.8706 13.1287L34.3706 13.1287ZM34.3701 21L33.8701 21L33.87 21.5H34.3701V21ZM38.551 21V21.5H39.051V21H38.551ZM38.551 13.2322L39.051 13.2322L39.051 13.232L38.551 13.2322ZM31.819 5.46555L31.819 4.96555L31.819 4.96555L31.819 5.46555ZM26.6244 7.74594V8.24594H26.8779L27.0278 8.04144L26.6244 7.74594ZM26.4271 7.74594H25.9271V8.24594H26.4271V7.74594ZM26.4271 5.46748H26.9271V4.96748H26.4271V5.46748ZM22.2205 5.46748V4.96748H21.7205V5.46748H22.2205ZM22.2205 21H21.7205V21.5H22.2205V21ZM44.2972 11.4261L43.8194 11.2788L43.6199 11.9261H44.2972V11.4261ZM52.4846 11.4261V11.9261H53.1537L52.9641 11.2844L52.4846 11.4261ZM75.499 21V21.5H75.999V21H75.499ZM75.499 5.45724H75.999V4.95724H75.499V5.45724ZM71.2905 21H70.7905V21.5H71.2905V21ZM71.2905 18.8312H71.7905V18.3312H71.2905V18.8312ZM71.1589 18.8312V18.3312H70.9142L70.7641 18.5244L71.1589 18.8312ZM58.1831 13.2286L57.6831 13.2256V13.2286H58.1831ZM58.1839 13.0917L57.6839 13.0856L57.6839 13.0887L58.1839 13.0917ZM71.1141 7.73957L70.717 8.04331L70.867 8.23957L71.1141 8.23957L71.1141 7.73957ZM71.2905 7.73957L71.2905 8.23957L71.7905 8.23957V7.73957H71.2905ZM71.2905 5.45724V4.95724H70.7905V5.45724H71.2905ZM111.943 15.5951L112.439 15.6592L112.512 15.0951H111.943V15.5951ZM107.869 15.5951V15.0951H107.524L107.402 15.4178L107.869 15.5951ZM99.4762 14.2092V13.7092H98.902L98.9809 14.2779L99.4762 14.2092ZM111.848 14.2092V14.7092H112.348V14.2092H111.848ZM111.848 14.2081V13.7081H111.348V14.2081H111.848ZM112.003 14.2081V14.7081H112.449L112.499 14.2642L112.003 14.2081ZM108.977 6.76839L109.257 6.35402L108.477 5.82741V6.76839H108.977ZM108.977 6.77393L108.691 7.18405L109.477 7.7322V6.77393H108.977ZM107.824 11.4261V11.9261H108.494L108.304 11.2844L107.824 11.4261ZM99.6371 11.4261L99.1593 11.2788L98.9597 11.9261H99.6371V11.4261ZM117.76 21V21.5H118.26V21H117.76ZM124.595 9.8342L124.46 10.3156L124.996 10.4658L125.088 9.91729L124.595 9.8342ZM125.265 5.85839L125.758 5.94149L125.837 5.47244L125.373 5.3701L125.265 5.85839ZM125.028 5.80546L125.138 5.31767L125.135 5.31701L125.028 5.80546ZM125.028 5.80542L124.918 6.29321L124.921 6.29387L125.028 5.80542ZM118.022 7.74788V8.24788H118.31L118.454 7.99893L118.022 7.74788ZM117.76 7.74788H117.26V8.24788H117.76V7.74788ZM117.76 5.46555H118.26V4.96555H117.76V5.46555ZM113.551 5.46555V4.96555H113.051V5.46555H113.551ZM113.551 21H113.051V21.5H113.551V21ZM127.821 19.105L127.466 19.4566L127.466 19.457L127.821 19.105ZM126.764 16.2433L126.264 16.2426L126.264 16.2486L126.764 16.2433ZM126.765 15.9265L126.265 15.9237L126.265 15.9258L126.765 15.9265ZM126.766 15.6253V15.1253H126.269L126.266 15.6225L126.766 15.6253ZM131.085 15.6253H131.585V15.1253H131.085V15.6253ZM134.995 14.872L135.053 14.3754L135.053 14.3754L134.995 14.872ZM134.337 14.7914L134.271 15.2871L134.272 15.2872L134.337 14.7914ZM142.089 10.7351V11.2351H142.589V10.7351H142.089ZM137.807 10.7351H137.307V11.2351H137.807V10.7351ZM134.652 11.5332L134.578 12.0277L134.578 12.0277L134.652 11.5332ZM135.001 11.5855L134.927 12.08L134.927 12.0801L135.001 11.5855ZM135.28 11.6271L135.355 11.1327L135.353 11.1325L135.28 11.6271ZM135.84 11.7123L135.917 11.2183L135.915 11.218L135.84 11.7123ZM94.2315 20.7074L87.7027 11.6628L86.8919 12.248L93.4207 21.2926L94.2315 20.7074ZM88.5998 21.5H93.8261V20.5H88.5998V21.5ZM83.8371 15.256L88.1944 21.2926L89.0052 20.7074L84.648 14.6707L83.8371 15.256ZM81.5732 18.2948L84.5934 15.3195L83.8916 14.6072L80.8714 17.5824L81.5732 18.2948ZM81.7223 20.9543V17.9386H80.7223V20.9543H81.7223ZM77.0351 21.4543H81.2223V20.4543H77.0351V21.4543ZM76.5351 1V20.9543H77.5351V1H76.5351ZM81.2223 0.5H77.0351V1.5H81.2223V0.5ZM81.7223 12.2226V1H80.7223V12.2226H81.7223ZM87.7063 5.11185L80.8709 11.8669L81.5738 12.5782L88.4092 5.82312L87.7063 5.11185ZM93.8847 4.96748H88.0577V5.96748H93.8847V4.96748ZM87.6481 12.3116L94.2356 5.82372L93.5339 5.11125L86.9464 11.5992L87.6481 12.3116ZM48.3858 21.5C50.9936 21.5 53.0511 20.9709 54.526 19.9603C56.0159 18.9394 56.867 17.4566 57.0992 15.6592L56.1074 15.5311C55.9089 17.0677 55.1984 18.2873 53.9608 19.1354C52.7082 19.9937 50.8723 20.5 48.3858 20.5V21.5ZM39.5497 13.1544C39.5497 15.8368 40.336 17.9475 41.8844 19.3822C43.4264 20.8111 45.6498 21.5 48.3858 21.5V20.5C45.8056 20.5 43.861 19.8505 42.5641 18.6487C41.2734 17.4528 40.5497 15.6408 40.5497 13.1544H39.5497ZM48.3858 4.80913C45.6823 4.80913 43.4613 5.52484 41.9128 6.96294C40.3586 8.40625 39.5497 10.514 39.5497 13.1544H40.5497C40.5497 10.7217 41.2892 8.90673 42.5933 7.69569C43.9029 6.47945 45.85 5.80913 48.3858 5.80913V4.80913ZM53.923 6.36381C52.5142 5.38134 50.6654 4.80913 48.3858 4.80913V5.80913C50.4958 5.80913 52.1365 6.3371 53.351 7.18405L53.923 6.36381ZM53.137 6.76839V6.77393H54.137V6.76839H53.137ZM57.1596 14.2642C57.4077 12.0651 57.1452 8.53414 53.9168 6.35402L53.3572 7.18276C56.1233 9.0507 56.3982 12.0926 56.1659 14.1521L57.1596 14.2642ZM56.5082 14.7081H56.6627V13.7081H56.5082V14.7081ZM57.0082 14.2075L57.0082 14.2064L56.0082 14.2098L56.0082 14.2109L57.0082 14.2075ZM44.1364 14.7092H56.5082V13.7092H44.1364V14.7092ZM48.3858 16.8143C47.0777 16.8143 46.2129 16.5652 45.6495 16.1409C45.1003 15.7273 44.7635 15.0908 44.6316 14.1405L43.6411 14.2779C43.7973 15.4037 44.2246 16.3197 45.0479 16.9397C45.8569 17.5489 46.9728 17.8143 48.3858 17.8143V16.8143ZM52.0619 15.4178C51.794 16.1244 50.857 16.8143 48.3858 16.8143V17.8143C50.94 17.8143 52.4914 17.1057 52.9969 15.7724L52.0619 15.4178ZM56.6033 15.0951H52.5294V16.0951H56.6033V15.0951ZM20.2358 16.3935C20.2358 17.2989 20.0737 17.9804 19.7912 18.5001C19.5118 19.0141 19.0966 19.4032 18.5306 19.6984C17.3659 20.3058 15.5998 20.5 13.2168 20.5V21.5C15.5952 21.5 17.5886 21.3175 18.9931 20.585C19.7116 20.2103 20.2834 19.6885 20.6698 18.9776C21.0532 18.2723 21.2358 17.4147 21.2358 16.3935H20.2358ZM13.9992 12.2064C15.6459 12.4624 17.2284 12.774 18.3971 13.4088C18.9729 13.7216 19.4273 14.1024 19.739 14.575C20.0479 15.0436 20.2358 15.6314 20.2358 16.3935H21.2358C21.2358 15.4561 21.0012 14.6728 20.5739 14.0246C20.1492 13.3806 19.5537 12.8991 18.8745 12.5301C17.5333 11.8016 15.7858 11.4721 14.1528 11.2183L13.9992 12.2064ZM13.4402 12.1214L14.0008 12.2066L14.1512 11.218L13.5905 11.1327L13.4402 12.1214ZM13.1632 12.0801L13.4416 12.1216L13.5891 11.1325L13.3108 11.091L13.1632 12.0801ZM12.8138 12.0277L13.1629 12.08L13.3111 11.0911L12.962 11.0387L12.8138 12.0277ZM9.20681 10.062C9.20681 10.293 9.24796 10.547 9.40109 10.7897C9.55162 11.0284 9.77868 11.206 10.0585 11.3477C10.5967 11.6202 11.4669 11.8254 12.8136 12.0277L12.9621 11.0387C11.6077 10.8354 10.8874 10.6465 10.5103 10.4556C10.3325 10.3656 10.2708 10.2941 10.2469 10.2563C10.2257 10.2226 10.2068 10.1726 10.2068 10.062H9.20681ZM12.5495 8.23096C11.3238 8.23096 10.5026 8.45155 9.97222 8.79909C9.42538 9.1574 9.20681 9.64193 9.20681 10.062H10.2068C10.2068 10.0043 10.2337 9.8233 10.5203 9.63553C10.8233 9.43699 11.4235 9.23096 12.5495 9.23096V8.23096ZM16.543 10.6013C16.543 10.2233 16.4621 9.86322 16.2743 9.5412C16.0863 9.21886 15.8083 8.96406 15.4598 8.77041C14.7804 8.39296 13.8029 8.23096 12.5495 8.23096V9.23096C13.7514 9.23096 14.5206 9.3926 14.9741 9.64456C15.192 9.76562 15.3271 9.90197 15.4105 10.045C15.4941 10.1883 15.543 10.3679 15.543 10.6013H16.543ZM16.543 10.7351V10.6013H15.543V10.7351H16.543ZM20.3245 10.2351H16.043V11.2351H20.3245V10.2351ZM19.8245 10.6022V10.7351H20.8245V10.6022H19.8245ZM12.5495 5.86394C15.6987 5.86394 17.5017 6.56347 18.5147 7.4613C19.5163 8.34897 19.8245 9.50151 19.8245 10.6022H20.8245C20.8245 9.31364 20.4577 7.84706 19.178 6.71292C17.9098 5.58894 15.8253 4.86394 12.5495 4.86394V5.86394ZM5.84873 10.116C5.84873 9.12918 6.12985 8.09932 7.04517 7.30465C7.97396 6.49827 9.635 5.86394 12.5495 5.86394V4.86394C9.51271 4.86394 7.57334 5.5218 6.38958 6.54953C5.19233 7.58898 4.84873 8.93516 4.84873 10.116H5.84873ZM12.638 14.2957C10.4102 14.0012 8.69085 13.6149 7.53454 12.9591C6.96598 12.6366 6.55148 12.2585 6.2767 11.8093C6.00314 11.3621 5.84873 10.8129 5.84873 10.116H4.84873C4.84873 10.9677 5.03972 11.7035 5.42364 12.3311C5.80634 12.9568 6.36141 13.4434 7.04121 13.8289C8.38162 14.5891 10.2741 14.9919 12.507 15.2871L12.638 14.2957ZM13.2891 14.3754C13.0635 14.3489 12.8439 14.3226 12.6372 14.2956L12.5078 15.2872C12.7212 15.3151 12.9461 15.342 13.1722 15.3686L13.2891 14.3754ZM16.9032 16.4575C16.9032 16.0462 16.7661 15.6947 16.5159 15.4132C16.2764 15.1437 15.9561 14.9635 15.6231 14.8348C14.9685 14.5817 14.1086 14.4721 13.2892 14.3754L13.1721 15.3685C14.0218 15.4688 14.7481 15.5686 15.2625 15.7675C15.514 15.8648 15.6739 15.9711 15.7684 16.0775C15.8523 16.1719 15.9032 16.2856 15.9032 16.4575H16.9032ZM13.1052 18.1787C13.9541 18.1787 14.8388 18.1269 15.5252 17.9267C15.8688 17.8265 16.2045 17.6776 16.4611 17.444C16.7331 17.1963 16.9032 16.8633 16.9032 16.4575H15.9032C15.9032 16.5565 15.8713 16.6286 15.7879 16.7045C15.6891 16.7945 15.5158 16.8878 15.2453 16.9667C14.7034 17.1247 13.9391 17.1787 13.1052 17.1787V18.1787ZM8.82121 15.759C8.82121 16.1523 8.89445 16.5283 9.08336 16.8641C9.27413 17.2033 9.56229 17.4647 9.93144 17.6591C10.643 18.0337 11.6954 18.1787 13.1052 18.1787V17.1787C11.7181 17.1787 10.8785 17.0276 10.3973 16.7742C10.1701 16.6546 10.0366 16.5191 9.95492 16.3738C9.87135 16.2253 9.82121 16.0295 9.82121 15.759H8.82121ZM8.82121 15.6253V15.759H9.82121V15.6253H8.82121ZM5.0021 16.1253H9.32121V15.1253H5.0021V16.1253ZM5.50043 15.9293L5.50209 15.628L4.50211 15.6225L4.50045 15.9237L5.50043 15.9293ZM5.5 16.244L5.50044 15.9272L4.50044 15.9258L4.5 16.2426L5.5 16.244ZM6.41238 18.7533C5.61292 17.9452 5.508 16.9884 5.49997 16.2379L4.50003 16.2486C4.50891 17.0784 4.62306 18.3665 5.70148 19.4566L6.41238 18.7533ZM13.2168 20.5C9.73086 20.5 7.50628 19.8569 6.41204 18.753L5.70182 19.457C7.09926 20.8668 9.69217 21.5 13.2168 21.5V20.5ZM25.9271 13.5096V21H26.9271V13.5096H25.9271ZM30.6033 8.58726C28.6736 8.58726 27.4531 9.21137 26.7445 10.2227C26.0621 11.1969 25.9271 12.4345 25.9271 13.5096H26.9271C26.9271 12.4813 27.0653 11.5077 27.5635 10.7965C28.0357 10.1226 28.9033 9.58726 30.6033 9.58726V8.58726ZM34.8716 13.0301C34.8784 12.3958 34.9005 11.2747 34.3561 10.3187C33.7773 9.3021 32.6378 8.58726 30.6033 8.58726V9.58726C32.3792 9.58726 33.1309 10.1879 33.4871 10.8135C33.8778 11.4996 33.8788 12.3472 33.8716 13.0194L34.8716 13.0301ZM34.8706 13.1337L34.8716 13.0297L33.8716 13.0197L33.8706 13.1237L34.8706 13.1337ZM34.8701 21L34.8706 13.1288L33.8706 13.1287L33.8701 21L34.8701 21ZM38.551 20.5H34.3701V21.5H38.551V20.5ZM38.051 13.2322V21H39.051V13.2322H38.051ZM31.819 5.96555C33.3873 5.96555 34.5362 6.29414 35.3835 6.79186C36.2292 7.28868 36.8048 7.97182 37.1998 8.73081C38.0012 10.2705 38.0506 12.0997 38.051 13.2324L39.051 13.232C39.0506 12.101 39.0122 10.0469 38.0869 8.26912C37.6186 7.36941 36.9211 6.53535 35.89 5.92963C34.8604 5.32481 33.5288 4.96555 31.819 4.96555V5.96555ZM27.0278 8.04144C27.4916 7.40828 28.0361 6.89898 28.7735 6.5428C29.5149 6.18465 30.4842 5.96555 31.819 5.96555L31.819 4.96555C30.376 4.96555 29.2493 5.20241 28.3385 5.64235C27.4237 6.08424 26.7598 6.71513 26.2211 7.45044L27.0278 8.04144ZM26.4271 8.24594H26.6244V7.24594H26.4271V8.24594ZM25.9271 5.46748V7.74594H26.9271V5.46748H25.9271ZM22.2205 5.96748H26.4271V4.96748H22.2205V5.96748ZM22.7205 21V5.46748H21.7205V21H22.7205ZM26.4271 20.5H22.2205V21.5H26.4271V20.5ZM44.2972 11.9261H52.4846V10.9261H44.2972V11.9261ZM48.3858 8.49479C47.167 8.49479 46.1657 8.71864 45.3904 9.19368C44.6036 9.67573 44.0935 10.3897 43.8194 11.2788L44.7751 11.5734C44.9864 10.888 45.3579 10.3863 45.9128 10.0464C46.4791 9.69937 47.2794 9.49479 48.3858 9.49479V8.49479ZM52.9641 11.2844C52.7777 10.6537 52.4595 9.93 51.732 9.37624C51.0085 8.82548 49.9492 8.49479 48.3858 8.49479V9.49479C49.8169 9.49479 50.635 9.79795 51.1263 10.1719C51.6137 10.5429 51.8476 11.0348 52.0051 11.5678L52.9641 11.2844ZM75.999 21V5.45724H74.999V21H75.999ZM71.2905 21.5H75.499V20.5H71.2905V21.5ZM70.7905 18.8312V21H71.7905V18.8312H70.7905ZM71.1589 19.3312H71.2905V18.3312H71.1589V19.3312ZM65.4251 21.5C68.4325 21.5 70.3768 20.6524 71.5537 19.138L70.7641 18.5244C69.8407 19.7126 68.2457 20.5 65.4251 20.5V21.5ZM57.6831 13.2286C57.6831 14.3151 57.8705 16.3619 58.9331 18.1541C60.0187 19.9849 61.9914 21.5 65.4251 21.5V20.5C62.3498 20.5 60.7015 19.1757 59.7933 17.6441C58.8622 16.0737 58.6831 14.2348 58.6831 13.2286H57.6831ZM57.6839 13.0887L57.6831 13.2256L58.6831 13.2317L58.6839 13.0948L57.6839 13.0887ZM65.4369 4.95724C62.0547 4.95724 60.0848 6.36392 58.9844 8.13212C57.9079 9.86199 57.6987 11.8789 57.6839 13.0856L58.6839 13.0978C58.6977 11.9627 58.8988 10.1624 59.8335 8.66049C60.7443 7.19689 62.3867 5.95724 65.4369 5.95724V4.95724ZM71.5113 7.43583C70.3408 5.90533 68.4189 4.95724 65.4369 4.95724V5.95724C68.1918 5.95724 69.7816 6.82028 70.717 8.04331L71.5113 7.43583ZM71.2905 7.23957L71.1141 7.23957L71.1141 8.23957L71.2905 8.23957L71.2905 7.23957ZM70.7905 5.45724V7.73957H71.7905V5.45724H70.7905ZM75.499 4.95724H71.2905V5.95724H75.499V4.95724ZM61.6984 13.2286C61.6984 13.8363 61.8181 14.9887 62.5103 16.0032C63.2253 17.0512 64.4998 17.8766 66.6455 17.8766V16.8766C64.7949 16.8766 63.8459 16.1865 63.3364 15.4396C62.804 14.6594 62.6984 13.7377 62.6984 13.2286H61.6984ZM66.6527 8.58062C64.4984 8.58062 63.2192 9.37701 62.5028 10.4176C61.8094 11.4246 61.6984 12.5811 61.6984 13.2286H62.6984C62.6984 12.6669 62.7999 11.7494 63.3264 10.9847C63.8298 10.2536 64.7778 9.58062 66.6527 9.58062V8.58062ZM71.5273 13.2286C71.5273 12.1336 71.3371 10.9544 70.5873 10.0472C69.8218 9.121 68.5614 8.58062 66.6527 8.58062V9.58062C68.3755 9.58062 69.3025 10.0624 69.8164 10.6842C70.346 11.325 70.5273 12.2199 70.5273 13.2286H71.5273ZM66.6455 17.8766C68.538 17.8766 69.8056 17.4092 70.58 16.5107C71.3414 15.6273 71.5273 14.4366 71.5273 13.2286H70.5273C70.5273 14.3717 70.3422 15.2549 69.8225 15.8578C69.316 16.4455 68.3926 16.8766 66.6455 16.8766V17.8766ZM111.447 15.5311C111.249 17.0677 110.538 18.2873 109.301 19.1354C108.048 19.9937 106.212 20.5 103.726 20.5V21.5C106.333 21.5 108.391 20.9709 109.866 19.9603C111.356 18.9394 112.207 17.4566 112.439 15.6592L111.447 15.5311ZM107.869 16.0951H111.943V15.0951H107.869V16.0951ZM103.726 17.8143C106.28 17.8143 107.831 17.1057 108.337 15.7724L107.402 15.4178C107.134 16.1244 106.197 16.8143 103.726 16.8143V17.8143ZM98.9809 14.2779C99.1371 15.4037 99.5644 16.3197 100.388 16.9397C101.197 17.5489 102.313 17.8143 103.726 17.8143V16.8143C102.418 16.8143 101.553 16.5652 100.989 16.1409C100.44 15.7273 100.103 15.0908 99.9714 14.1405L98.9809 14.2779ZM111.848 13.7092H99.4762V14.7092H111.848V13.7092ZM111.348 14.2081V14.2092H112.348V14.2081H111.348ZM112.003 13.7081H111.848V14.7081H112.003V13.7081ZM108.697 7.18276C111.463 9.0507 111.738 12.0926 111.506 14.1521L112.499 14.2642C112.747 12.0651 112.485 8.53414 109.257 6.35402L108.697 7.18276ZM109.477 6.77393V6.76839H108.477V6.77393H109.477ZM103.726 5.80913C105.836 5.80913 107.476 6.3371 108.691 7.18405L109.263 6.36381C107.854 5.38134 106.005 4.80913 103.726 4.80913V5.80913ZM95.8896 13.1544C95.8896 10.7217 96.6291 8.90673 97.9331 7.69569C99.2428 6.47945 101.19 5.80913 103.726 5.80913V4.80913C101.022 4.80913 98.8012 5.52484 97.2526 6.96294C95.6984 8.40625 94.8896 10.514 94.8896 13.1544H95.8896ZM103.726 20.5C101.145 20.5 99.2008 19.8505 97.9039 18.6487C96.6132 17.4528 95.8896 15.6408 95.8896 13.1544H94.8896C94.8896 15.8368 95.6758 17.9475 97.2242 19.3822C98.7662 20.8111 100.99 21.5 103.726 21.5V20.5ZM107.824 10.9261H99.6371V11.9261H107.824V10.9261ZM103.726 9.49479C105.157 9.49479 105.975 9.79795 106.466 10.1719C106.954 10.5429 107.187 11.0348 107.345 11.5678L108.304 11.2844C108.118 10.6537 107.799 9.93 107.072 9.37624C106.348 8.82548 105.289 8.49479 103.726 8.49479V9.49479ZM100.115 11.5734C100.326 10.888 100.698 10.3863 101.253 10.0464C101.819 9.69937 102.619 9.49479 103.726 9.49479V8.49479C102.507 8.49479 101.505 8.71864 100.73 9.19368C99.9434 9.67573 99.4334 10.3897 99.1593 11.2788L100.115 11.5734ZM117.26 14.0306V21H118.26V14.0306H117.26ZM121.81 8.98814C120.1 8.98814 118.931 9.66741 118.208 10.68C117.504 11.6666 117.26 12.9173 117.26 14.0306H118.26C118.26 13.0402 118.481 12.0197 119.022 11.2609C119.545 10.5282 120.401 9.98814 121.81 9.98814V8.98814ZM124.73 9.35276C124.303 9.2331 123.194 8.98814 121.81 8.98814V9.98814C123.086 9.98814 124.103 10.2155 124.46 10.3156L124.73 9.35276ZM124.772 5.7753L124.102 9.7511L125.088 9.91729L125.758 5.94149L124.772 5.7753ZM124.918 6.29324C124.999 6.3114 125.079 6.32943 125.157 6.34668L125.373 5.3701C125.297 5.35344 125.219 5.33594 125.138 5.31768L124.918 6.29324ZM124.921 6.29387L124.922 6.29391L125.135 5.31701L125.135 5.31697L124.921 6.29387ZM122.508 5.96555C123.458 5.96555 124.235 6.13937 124.918 6.2932L125.138 5.31764C124.454 5.16356 123.58 4.96555 122.508 4.96555V5.96555ZM118.454 7.99893C118.866 7.28977 119.266 6.80595 119.836 6.48407C120.411 6.15874 121.219 5.96555 122.508 5.96555V4.96555C121.132 4.96555 120.129 5.16963 119.343 5.61352C118.552 6.06086 118.042 6.71821 117.59 7.49682L118.454 7.99893ZM117.76 8.24788H118.022V7.24788H117.76V8.24788ZM117.26 5.46555V7.74788H118.26V5.46555H117.26ZM113.551 5.96555H117.76V4.96555H113.551V5.96555ZM114.051 21V5.46555H113.051V21H114.051ZM117.76 20.5H113.551V21.5H117.76V20.5ZM134.981 21.5C137.359 21.5 139.353 21.3175 140.757 20.585C141.476 20.2103 142.048 19.6885 142.434 18.9776C142.817 18.2723 143 17.4147 143 16.3935H142C142 17.2989 141.838 17.9804 141.555 18.5001C141.276 19.0141 140.861 19.4032 140.295 19.6984C139.13 20.3058 137.364 20.5 134.981 20.5V21.5ZM127.466 19.457C128.863 20.8668 131.456 21.5 134.981 21.5V20.5C131.495 20.5 129.27 19.8569 128.176 18.753L127.466 19.457ZM126.264 16.2486C126.273 17.0784 126.387 18.3665 127.466 19.4566L128.177 18.7533C127.377 17.9452 127.272 16.9884 127.264 16.2379L126.264 16.2486ZM126.265 15.9258L126.264 16.2426L127.264 16.244L127.265 15.9272L126.265 15.9258ZM126.266 15.6225L126.265 15.9237L127.265 15.9292L127.266 15.628L126.266 15.6225ZM131.085 15.1253H126.766V16.1253H131.085V15.1253ZM131.585 15.759V15.6253H130.585V15.759H131.585ZM134.869 17.1787C133.482 17.1787 132.643 17.0276 132.161 16.7742C131.934 16.6546 131.801 16.5191 131.719 16.3738C131.636 16.2253 131.585 16.0295 131.585 15.759H130.585C130.585 16.1523 130.659 16.5283 130.848 16.8641C131.038 17.2033 131.326 17.4647 131.696 17.6591C132.407 18.0337 133.46 18.1787 134.869 18.1787V17.1787ZM137.667 16.4575C137.667 16.5565 137.636 16.6286 137.552 16.7045C137.453 16.7945 137.28 16.8878 137.009 16.9667C136.468 17.1247 135.703 17.1787 134.869 17.1787V18.1787C135.718 18.1787 136.603 18.1269 137.289 17.9267C137.633 17.8265 137.969 17.6776 138.225 17.444C138.497 17.1963 138.667 16.8633 138.667 16.4575H137.667ZM134.936 15.3685C135.786 15.4688 136.512 15.5686 137.027 15.7675C137.278 15.8648 137.438 15.9711 137.533 16.0775C137.617 16.1719 137.667 16.2856 137.667 16.4575H138.667C138.667 16.0462 138.53 15.6947 138.28 15.4132C138.041 15.1437 137.72 14.9635 137.387 14.8348C136.733 14.5817 135.873 14.4721 135.053 14.3754L134.936 15.3685ZM134.272 15.2872C134.485 15.3151 134.71 15.342 134.936 15.3686L135.053 14.3754C134.828 14.3489 134.608 14.3226 134.401 14.2956L134.272 15.2872ZM126.613 10.116C126.613 10.9677 126.804 11.7035 127.188 12.3311C127.571 12.9568 128.126 13.4434 128.805 13.8289C130.146 14.5891 132.038 14.9919 134.271 15.2871L134.402 14.2957C132.174 14.0012 130.455 13.6149 129.299 12.9591C128.73 12.6366 128.316 12.2585 128.041 11.8093C127.767 11.3621 127.613 10.8129 127.613 10.116H126.613ZM134.314 4.86394C131.277 4.86394 129.338 5.5218 128.154 6.54953C126.957 7.58898 126.613 8.93516 126.613 10.116H127.613C127.613 9.12918 127.894 8.09932 128.809 7.30465C129.738 6.49827 131.399 5.86394 134.314 5.86394V4.86394ZM142.589 10.6022C142.589 9.31364 142.222 7.84706 140.942 6.71292C139.674 5.58894 137.589 4.86394 134.314 4.86394V5.86394C137.463 5.86394 139.266 6.56347 140.279 7.4613C141.28 8.34897 141.589 9.50151 141.589 10.6022H142.589ZM142.589 10.7351V10.6022H141.589V10.7351H142.589ZM137.807 11.2351H142.089V10.2351H137.807V11.2351ZM137.307 10.6013V10.7351H138.307V10.6013H137.307ZM134.314 9.23096C135.516 9.23096 136.285 9.3926 136.738 9.64456C136.956 9.76562 137.091 9.90197 137.175 10.045C137.258 10.1883 137.307 10.3679 137.307 10.6013H138.307C138.307 10.2233 138.226 9.86322 138.039 9.5412C137.851 9.21886 137.573 8.96406 137.224 8.77041C136.545 8.39296 135.567 8.23096 134.314 8.23096V9.23096ZM131.971 10.062C131.971 10.0043 131.998 9.8233 132.284 9.63553C132.587 9.437 133.188 9.23096 134.314 9.23096V8.23096C133.088 8.23096 132.267 8.45155 131.736 8.79909C131.19 9.1574 130.971 9.64193 130.971 10.062H131.971ZM134.726 11.0387C133.372 10.8354 132.652 10.6465 132.274 10.4556C132.097 10.3656 132.035 10.2941 132.011 10.2563C131.99 10.2226 131.971 10.1726 131.971 10.062H130.971C130.971 10.293 131.012 10.547 131.165 10.7897C131.316 11.0284 131.543 11.206 131.823 11.3477C132.361 11.6202 133.231 11.8254 134.578 12.0277L134.726 11.0387ZM135.075 11.0911L134.726 11.0387L134.578 12.0277L134.927 12.08L135.075 11.0911ZM135.353 11.1325L135.075 11.091L134.927 12.0801L135.206 12.1216L135.353 11.1325ZM135.915 11.218L135.355 11.1327L135.204 12.1214L135.765 12.2066L135.915 11.218ZM143 16.3935C143 15.4561 142.765 14.6728 142.338 14.0246C141.913 13.3806 141.318 12.8991 140.639 12.5301C139.297 11.8016 137.55 11.4721 135.917 11.2183L135.763 12.2064C137.41 12.4624 138.993 12.774 140.161 13.4088C140.737 13.7216 141.192 14.1024 141.503 14.575C141.812 15.0436 142 15.6314 142 16.3935H143Z" fill="black"/>
</g>
</g>
<defs>
<filter id="filter0_d_0_810" x="0.499939" y="0.5" width="146.5" height="29" filterUnits="userSpaceOnUse" color-interpolation-filters="sRGB">
<feFlood flood-opacity="0" result="BackgroundImageFix"/>
<feColorMatrix in="SourceAlpha" type="matrix" values="0 0 0 0 0 0 0 0 0 0 0 0 0 0 0 0 0 0 127 0" result="hardAlpha"/>
<feOffset dy="4"/>
<feGaussianBlur stdDeviation="2"/>
<feComposite in2="hardAlpha" operator="out"/>
<feColorMatrix type="matrix" values="0 0 0 0 0 0 0 0 0 0 0 0 0 0 0 0 0 0 0.25 0"/>
<feBlend mode="normal" in2="BackgroundImageFix" result="effect1_dropShadow_0_810"/>
<feBlend mode="normal" in="SourceGraphic" in2="effect1_dropShadow_0_810" result="shape"/>
</filter>
</defs>
</svg>
